<?xml version="1.0" encoding="utf-8"?>
<!-- Generator: Adobe Illustrator 23.0.0, SVG Export Plug-In . SVG Version: 6.00 Build 0)  -->
<svg version="1.1" id="Layer_1" xmlns="http://www.w3.org/2000/svg" xmlns:xlink="http://www.w3.org/1999/xlink" x="0px" y="0px"
	 viewBox="0 0 62 62" style="enable-background:new 0 0 62 62;" xml:space="preserve">
<style type="text/css">
	.st0{fill:#E41E26;}
</style>
<title>1</title>
<g>
	<g id="Group">
		<path id="Fill-10" class="st0" d="M42.6,3.3c-5.5,1.3-9.3,6.3-9.3,11.9c0,0.1,0,0.3,0,0.4c8.4,1.8,12.6,7.7,12.6,15.4
			c0.1,8.5-6.7,15.5-15.2,15.7c-8.4,0-16.2-7.2-16.2-17.9C14.5,15.7,25.4,3.4,40.8,3c0.3,0,0.7,0,1.2,0C26.5-3.2,8.9,4.4,2.8,19.9
			s1.4,33,16.9,39.2s33-1.4,39.2-16.9C64.9,26.9,57.7,9.6,42.6,3.3"/>
	</g>
</g>
</svg>
